HIERARCHY
ROOT Hips
{
  OFFSET 52.3495 97.2119 32.6344
  CHANNELS 6 Xposition Yposition Zposition Zrotation Xrotation Yrotation
  JOINT spine
  {
    OFFSET 0 7.96568 0.458067
    CHANNELS 3 Zrotation Xrotation Yrotation
    JOINT spine1
    {
      OFFSET 0 10.2431 0
      CHANNELS 3 Zrotation Xrotation Yrotation
      JOINT spine2
      {
        OFFSET 0 9.81475 0
        CHANNELS 3 Zrotation Xrotation Yrotation
        JOINT Neck
        {
          OFFSET 0 25.1986 1.20138
          CHANNELS 3 Zrotation Xrotation Yrotation
          JOINT Head
          {
            OFFSET 0 7.61315 0
            CHANNELS 3 Zrotation Xrotation Yrotation
            End Site
            {
              OFFSET 0 18.4281 -6.07733
            }
          }
        }
        JOINT RightShoulder
        {
          OFFSET -4.1327 10.5992 -0.575451
          CHANNELS 3 Zrotation Xrotation Yrotation
          JOINT RightArm
          {
            OFFSET 0 13.9018 0
            CHANNELS 3 Zrotation Xrotation Yrotation
            JOINT RightArmRoll
            {
              OFFSET 0 7.01788 0
              CHANNELS 3 Zrotation Xrotation Yrotation
              JOINT RightForeArm
              {
                OFFSET 0 20.4406 0
                CHANNELS 3 Zrotation Xrotation Yrotation
                JOINT RightForeArmRoll
                {
                  OFFSET 0 7.87516 0
                  CHANNELS 3 Zrotation Xrotation Yrotation
                  JOINT RightHand
                  {
                    OFFSET 0 15.8037 0
                    CHANNELS 3 Zrotation Xrotation Yrotation
                    End Site
                    {
                      OFFSET 0 0 0
                    }
                  }
                }
              }
            }
          }
        }
        JOINT LeftShoulder
        {
          OFFSET 4.1327 10.5992 -0.575451
          CHANNELS 3 Zrotation Xrotation Yrotation
          JOINT LeftArm
          {
            OFFSET 0 13.9018 0
            CHANNELS 3 Zrotation Xrotation Yrotation
            JOINT LeftArmRoll
            {
              OFFSET 0 7.01789 0
              CHANNELS 3 Zrotation Xrotation Yrotation
              JOINT LeftForeArm
              {
                OFFSET 0 20.4406 0
                CHANNELS 3 Zrotation Xrotation Yrotation
                JOINT LeftForeArmRoll
                {
                  OFFSET 0 7.87515 0
                  CHANNELS 3 Zrotation Xrotation Yrotation
                  JOINT LeftHand
                  {
                    OFFSET 0 15.8037 0
                    CHANNELS 3 Zrotation Xrotation Yrotation
                    End Site
                    {
                      OFFSET 0 0 0
                    }
                  }
                }
              }
            }
          }
        }
      }
    }
  }
  JOINT RightUpLeg
  {
    OFFSET -7.06048 -1.2947 -1.0861
    CHANNELS 3 Zrotation Xrotation Yrotation
    JOINT RightUpLegRoll
    {
      OFFSET 0 18.5308 0
      CHANNELS 3 Zrotation Xrotation Yrotation
      JOINT RightLeg
      {
        OFFSET 0 -22.9476 0
        CHANNELS 3 Zrotation Xrotation Yrotation
        JOINT RightLegRoll
        {
          OFFSET 0 23.0226 0
          CHANNELS 3 Zrotation Xrotation Yrotation
          JOINT RightFoot
          {
            OFFSET 0 19.1625 0
            CHANNELS 3 Zrotation Xrotation Yrotation
            JOINT RightToeBase
            {
              OFFSET 0 16.0188 0
              CHANNELS 3 Zrotation Xrotation Yrotation
              End Site
              {
                OFFSET 0.00678979 7.75781 -0.894207
              }
            }
          }
        }
      }
    }
  }
  JOINT LeftUpLeg
  {
    OFFSET 7.06048 -1.2947 -1.0861
    CHANNELS 3 Zrotation Xrotation Yrotation
    JOINT LeftUpLegRoll
    {
      OFFSET 0 18.5309 0
      CHANNELS 3 Zrotation Xrotation Yrotation
      JOINT LeftLeg
      {
        OFFSET 0 22.9475 0
        CHANNELS 3 Zrotation Xrotation Yrotation
        JOINT LeftLegRoll
        {
          OFFSET 0 23.2355 0
          CHANNELS 3 Zrotation Xrotation Yrotation
          JOINT LeftFoot
          {
            OFFSET 0 18.9496 0
            CHANNELS 3 Zrotation Xrotation Yrotation
            JOINT LeftToeBase
            {
              OFFSET 0 16.0188 0
              CHANNELS 3 Zrotation Xrotation Yrotation
              End Site
              {
                OFFSET -0.0304289 7.75781 -0.894207
              }
            }
          }
        }
      }
    }
  }
}
MOTION
Frames: 13
Frame Time: 0.00208333
52.6803 54.5118 -0.61615 0.555544 -9.04383 1.97599 0.208492 4.20397 -0.539736 0.469549 12.4024 -1.13046 0.485496 14.0473 -1.14205 -13.9675 -22.3911 -2.58832 13.0653 19.9172 -2.94368 54.6547 -4.72994 -2.64174 123.416 37.5191 -28.3825 -1.12119e-005 -2.32001e-006 7.33796e-007 16.1377 55.5322 -11.5907 4.02464e-006 1.42892e-005 -2.99999 8.02904 -4.95101 0.697506 -61.2984 -12.8119 7.924 -111.086 34.9397 40.508 -3.06397e-006 -1.18061e-006 -1.59798e-006 -29.1692 69.6131 25.7893 4.20957e-006 -1.07625e-005 2.99998 -8.02905 -4.95108 -0.69755 127.189 75.2763 55.0345 180 1.52519e-005 178.282 -21.8868 74.0748 25.3433 -7.68121e-007 -5.91167e-006 3.05127 -23.0377 72.3524 24.0713 8.15357 27.2949 -0.708879 -125.464 76.523 -57.0781 4.47153e-006 -3.51245e-005 -1.51454 152.957 -80.9876 151.945 1.72843e-006 -3.53175e-006 -2.4062 16.9558 64.6387 -17.0636 -8.33077 29.5736 2.3 
52.6831 54.504 -0.613883 0.554327 -9.03941 1.97521 0.207931 4.20334 -0.539424 0.46872 12.4023 -1.12983 0.48464 14.0472 -1.1414 -13.9522 -22.3808 -2.58252 13.0507 19.9135 -2.93839 54.6606 -4.72935 -2.64171 123.403 37.5184 -28.3872 -1.12119e-005 -2.32001e-006 7.33796e-007 16.146 55.5376 -11.5968 4.02464e-006 1.42892e-005 -2.99999 8.02904 -4.95101 0.697506 -61.2884 -12.8094 7.92277 -111.092 34.9364 40.5153 -3.06397e-006 -1.18061e-006 -1.59798e-006 -29.1657 69.618 25.7913 4.20957e-006 -1.07625e-005 2.99998 -8.02905 -4.95108 -0.69755 127.183 75.2795 55.0434 180 1.52519e-005 178.282 -21.8857 74.0752 25.3417 -7.68121e-007 -5.91167e-006 3.05102 -23.0364 72.3514 24.0695 8.15362 27.2955 -0.707983 -125.454 76.527 -57.0844 4.47153e-006 -3.51245e-005 -1.51454 152.952 -80.9865 151.939 1.72843e-006 -3.53175e-006 -2.4062 16.957 64.6405 -17.0652 -8.3302 29.5669 2.29491 
52.6833 54.5077 -0.610613 0.553067 -9.03513 1.97445 0.20736 4.20266 -0.539112 0.467866 12.402 -1.12918 0.483758 14.047 -1.14072 -13.9361 -22.3693 -2.57654 13.0356 19.909 -2.93299 54.6672 -4.72852 -2.64158 123.39 37.5178 -28.3912 -1.12119e-005 -2.32001e-006 7.33796e-007 16.1544 55.5422 -11.6027 4.02464e-006 1.42892e-005 -2.99999 8.02904 -4.95101 0.697506 -61.2777 -12.8064 7.92127 -111.099 34.9325 40.5224 -3.06397e-006 -1.18061e-006 -1.59798e-006 -29.1617 69.6229 25.7929 4.20957e-006 -1.07625e-005 2.99998 -8.02905 -4.95108 -0.69755 127.176 75.2824 55.0529 180 1.52519e-005 178.281 -21.8844 74.0756 25.3396 -7.68121e-007 -5.91167e-006 3.05072 -23.0351 72.3505 24.0678 8.15367 27.2962 -0.707014 -125.445 76.531 -57.0901 4.47153e-006 -3.51245e-005 -1.51454 152.947 -80.9852 151.932 1.72843e-006 -3.53175e-006 -2.4062 16.9582 64.6424 -17.0668 -8.32962 29.56 2.28964 
52.6778 54.5228 -0.620646 0.551777 -9.03095 1.97371 0.206783 4.20193 -0.538799 0.466995 12.4018 -1.12851 0.482857 14.0467 -1.14003 -13.9194 -22.3569 -2.57044 13.0203 19.904 -2.92751 54.6742 -4.72754 -2.64138 123.376 37.5172 -28.3948 -1.12119e-005 -2.32001e-006 7.33796e-007 16.1627 55.5464 -11.6085 4.02464e-006 1.42892e-005 -2.99999 8.02904 -4.95101 0.697506 -61.2666 -12.8031 7.9196 -111.106 34.9284 40.5293 -3.06397e-006 -1.18061e-006 -1.59798e-006 -29.1572 69.6276 25.7943 4.20957e-006 -1.07625e-005 2.99998 -8.02905 -4.95108 -0.69755 127.169 75.285 55.0629 180 1.52519e-005 178.281 -21.8827 74.0759 25.3372 -7.68121e-007 -5.91167e-006 3.05037 -23.0338 72.3495 24.0661 8.15373 27.297 -0.705993 -125.435 76.535 -57.0957 4.47153e-006 -3.51245e-005 -1.51454 152.942 -80.9836 151.926 1.72843e-006 -3.53175e-006 -2.4062 16.9595 64.6444 -17.0686 -8.32904 29.5531 2.28424 
52.6798 54.5158 -0.609867 0.55047 -9.02682 1.97298 0.206202 4.20117 -0.538486 0.466113 12.4014 -1.12783 0.481947 14.0464 -1.13933 -13.9025 -22.3441 -2.56427 13.0048 19.8986 -2.92199 54.6816 -4.72646 -2.64113 123.362 37.5165 -28.3981 -1.12119e-005 -2.32001e-006 7.33796e-007 16.1711 55.5504 -11.6143 4.02464e-006 1.42892e-005 -2.99999 8.02904 -4.95101 0.697506 -61.2552 -12.7996 7.91781 -111.113 34.924 40.5362 -3.06397e-006 -1.18061e-006 -1.59798e-006 -29.1524 69.6324 25.7955 4.20957e-006 -1.07625e-005 2.99998 -8.02905 -4.95108 -0.69755 127.162 75.2875 55.0731 180 1.52519e-005 178.281 -21.8809 74.0762 25.3346 -7.68121e-007 -5.91167e-006 3.04999 -23.0325 72.3486 24.0644 8.15378 27.2977 -0.704944 -125.426 76.539 -57.1011 4.47153e-006 -3.51245e-005 -1.51454 152.938 -80.9818 151.92 1.72843e-006 -3.53175e-006 -2.4062 16.9608 64.6465 -17.0703 -8.32846 29.5461 2.27876 
52.681 54.5062 -0.601014 0.549158 -9.02271 1.97225 0.20562 4.20041 -0.538173 0.465229 12.4011 -1.12715 0.481033 14.0461 -1.13863 -13.8854 -22.3312 -2.55808 12.9893 19.8931 -2.91645 54.689 -4.72535 -2.64087 123.347 37.5159 -28.4014 -1.12119e-005 -2.32001e-006 7.33796e-007 16.1794 55.5543 -11.62 4.02464e-006 1.42892e-005 -2.99999 8.02904 -4.95101 0.697506 -61.2438 -12.7961 7.916 -111.121 34.9196 40.5431 -3.06397e-006 -1.18061e-006 -1.59798e-006 -29.1477 69.6372 25.7967 4.20957e-006 -1.07625e-005 2.99998 -8.02905 -4.95108 -0.69755 127.155 75.2899 55.0834 180 1.52519e-005 178.281 -21.879 74.0765 25.3319 -7.68121e-007 -5.91167e-006 3.04961 -23.0313 72.3476 24.0627 8.15384 27.2985 -0.703887 -125.417 76.543 -57.1064 4.47153e-006 -3.51245e-005 -1.51454 152.933 -80.9801 151.914 1.72843e-006 -3.53175e-006 -2.4062 16.9621 64.6485 -17.0721 -8.32788 29.5392 2.27327 
52.6793 54.5126 -0.599031 0.547856 -9.01857 1.97152 0.20504 4.19966 -0.53786 0.46435 12.4008 -1.12648 0.480125 14.0458 -1.13793 -13.8685 -22.3186 -2.55193 12.9739 19.8878 -2.91094 54.6963 -4.7243 -2.64063 123.333 37.5153 -28.4048 -1.12119e-005 -2.32001e-006 7.33796e-007 16.1878 55.5583 -11.6258 4.02464e-006 1.42892e-005 -2.99999 8.02904 -4.95101 0.697506 -61.2326 -12.7926 7.91425 -111.128 34.9153 40.55 -3.06397e-006 -1.18061e-006 -1.59798e-006 -29.143 69.6419 25.798 4.20957e-006 -1.07625e-005 2.99998 -8.02905 -4.95108 -0.69755 127.148 75.2924 55.0936 180 1.52519e-005 178.281 -21.8772 74.0768 25.3293 -7.68121e-007 -5.91167e-006 3.04925 -23.03 72.3467 24.061 8.1539 27.2992 -0.702845 -125.408 76.5469 -57.1118 4.47153e-006 -3.51245e-005 -1.51454 152.928 -80.9784 151.907 1.72843e-006 -3.53175e-006 -2.4062 16.9634 64.6506 -17.0739 -8.3273 29.5322 2.26782 
52.6658 54.5157 -0.638478 0.546575 -9.01436 1.97077 0.204465 4.19895 -0.537547 0.463483 12.4005 -1.12581 0.47923 14.0455 -1.13724 -13.852 -22.3065 -2.54586 12.9586 19.8829 -2.90548 54.7032 -4.72336 -2.64044 123.32 37.5147 -28.4086 -1.12119e-005 -2.32001e-006 7.33796e-007 16.1961 55.5627 -11.6317 4.02464e-006 1.42892e-005 -2.99999 8.02904 -4.95101 0.697506 -61.2216 -12.7894 7.91262 -111.135 34.9112 40.557 -3.06397e-006 -1.18061e-006 -1.59798e-006 -29.1387 69.6468 25.7995 4.20957e-006 -1.07625e-005 2.99998 -8.02905 -4.95108 -0.69755 127.141 75.2951 55.1035 180 1.52519e-005 178.281 -21.8756 74.0772 25.327 -7.68121e-007 -5.91167e-006 3.04891 -23.0287 72.3457 24.0593 8.15395 27.3 -0.701839 -125.399 76.5509 -57.1175 4.47153e-006 -3.51245e-005 -1.51454 152.924 -80.9769 151.901 1.72843e-006 -3.53175e-006 -2.4062 16.9647 64.6526 -17.0756 -8.32673 29.5253 2.26245 
52.6683 54.5179 -0.630266 0.545328 -9.01004 1.97001 0.203897 4.19827 -0.537235 0.462637 12.4003 -1.12517 0.478356 14.0453 -1.13657 -13.8362 -22.2953 -2.53995 12.9437 19.8787 -2.90012 54.7096 -4.7226 -2.64035 123.307 37.5141 -28.4128 -1.12119e-005 -2.32001e-006 7.33796e-007 16.2045 55.5675 -11.6376 4.02464e-006 1.42892e-005 -2.99999 8.02904 -4.95101 0.697506 -61.2111 -12.7865 7.91121 -111.141 34.9075 40.5641 -3.06397e-006 -1.18061e-006 -1.59798e-006 -29.1348 69.6516 25.8012 4.20957e-006 -1.07625e-005 2.99998 -8.02905 -4.95108 -0.69755 127.134 75.2981 55.1128 180 1.52519e-005 178.281 -21.8744 74.0776 25.3251 -7.68121e-007 -5.91167e-006 3.04862 -23.0274 72.3447 24.0576 8.154 27.3006 -0.700892 -125.389 76.5549 -57.1235 4.47153e-006 -3.51245e-005 -1.51454 152.919 -80.9756 151.895 1.72843e-006 -3.53175e-006 -2.4062 16.966 64.6545 -17.0772 -8.32617 29.5185 2.25724 
52.669 54.5399 -0.62525 0.544129 -9.00557 1.96922 0.203339 4.19767 -0.536924 0.461818 12.4003 -1.12454 0.477511 14.0453 -1.13593 -13.8213 -22.2854 -2.53423 12.9293 19.8753 -2.89488 54.7152 -4.72211 -2.64037 123.295 37.5134 -28.4177 -1.12119e-005 -2.32001e-006 7.33796e-007 16.2128 55.5731 -11.6438 4.02464e-006 1.42892e-005 -2.99999 8.02904 -4.95101 0.697506 -61.2012 -12.7842 7.91008 -111.148 34.9044 40.5715 -3.06397e-006 -1.18061e-006 -1.59798e-006 -29.1315 69.6566 25.8034 4.20957e-006 -1.07625e-005 2.99998 -8.02905 -4.95108 -0.69755 127.128 75.3015 55.1215 180 1.52519e-005 178.281 -21.8735 74.078 25.3236 -7.68121e-007 -5.91167e-006 3.0484 -23.0261 72.3438 24.0558 8.15405 27.3013 -0.700024 -125.38 76.5589 -57.1299 4.47153e-006 -3.51245e-005 -1.51454 152.913 -80.9746 151.888 1.72843e-006 -3.53175e-006 -2.4062 16.9671 64.6563 -17.0788 -8.32561 29.5118 2.25224 
52.6631 54.5343 -0.628407 0.54299 -9.00091 1.9684 0.202795 4.19715 -0.536615 0.461035 12.4004 -1.12395 0.476702 14.0453 -1.13531 -13.8074 -22.2771 -2.52876 12.9155 19.8732 -2.8898 54.7198 -4.72193 -2.64054 123.284 37.5126 -28.4234 -1.12119e-005 -2.32001e-006 7.33796e-007 16.2211 55.5796 -11.6501 4.02464e-006 1.42892e-005 -2.99999 8.02904 -4.95101 0.697506 -61.1922 -12.7825 7.90932 -111.154 34.9018 40.5791 -3.06397e-006 -1.18061e-006 -1.59798e-006 -29.1292 69.6616 25.806 4.20957e-006 -1.07625e-005 2.99998 -8.02905 -4.95108 -0.69755 127.122 75.3054 55.1293 180 1.52519e-005 178.281 -21.8732 74.0786 25.3228 -7.68121e-007 -5.91167e-006 3.04827 -23.0249 72.3428 24.054 8.15409 27.3019 -0.699259 -125.37 76.5629 -57.1368 4.47153e-006 -3.51245e-005 -1.51454 152.908 -80.974 151.881 1.72843e-006 -3.53175e-006 -2.4062 16.9682 64.6579 -17.0801 -8.32507 29.5052 2.24749 
52.6655 54.513 -0.610977 0.541925 -8.99602 1.96753 0.202266 4.19672 -0.536306 0.460295 12.4006 -1.12339 0.475938 14.0456 -1.13473 -13.795 -22.2708 -2.52359 12.9024 19.8724 -2.88492 54.7232 -4.72215 -2.64089 123.274 37.5118 -28.4302 -1.12119e-005 -2.32001e-006 7.33796e-007 16.2293 55.5872 -11.6568 4.02464e-006 1.42892e-005 -2.99999 8.02904 -4.95101 0.697506 -61.1842 -12.7816 7.90902 -111.159 34.9001 40.587 -3.06397e-006 -1.18061e-006 -1.59798e-006 -29.1278 69.6669 25.8093 4.20957e-006 -1.07625e-005 2.99998 -8.02905 -4.95108 -0.69755 127.117 75.3099 55.1361 180 1.52519e-005 178.281 -21.8736 74.0792 25.3228 -7.68121e-007 -5.91167e-006 3.04824 -23.0236 72.3418 24.0522 8.15413 27.3023 -0.698617 -125.359 76.5669 -57.1445 4.47153e-006 -3.51245e-005 -1.51454 152.902 -80.974 151.874 1.72843e-006 -3.53175e-006 -2.4062 16.9691 64.6594 -17.0813 -8.32454 29.4988 2.24306 
52.6632 54.5246 -0.618981 0.540945 -8.99085 1.96662 0.201756 4.19642 -0.536 0.459605 12.4011 -1.12288 0.475226 14.0461 -1.1342 -13.7842 -22.2668 -2.51878 12.8902 19.8732 -2.88026 54.7251 -4.72284 -2.64146 123.267 37.5109 -28.4382 -1.12119e-005 -2.32001e-006 7.33796e-007 16.2375 55.5961 -11.6637 4.02464e-006 1.42892e-005 -2.99999 8.02904 -4.95101 0.697506 -61.1775 -12.7817 7.90923 -111.164 34.8993 40.5952 -3.06397e-006 -1.18061e-006 -1.59798e-006 -29.1276 69.6722 25.8134 4.20957e-006 -1.07625e-005 2.99998 -8.02905 -4.95108 -0.69755 127.112 75.3152 55.1416 180 1.52519e-005 178.281 -21.8747 74.0799 25.3237 -7.68121e-007 -5.91167e-006 3.04834 -23.0222 72.3409 24.0503 8.15416 27.3027 -0.698121 -125.348 76.5709 -57.153 4.47153e-006 -3.51245e-005 -1.51454 152.895 -80.9745 151.866 1.72843e-006 -3.53175e-006 -2.4062 16.97 64.6607 -17.0822 -8.32403 29.4925 2.239 
